<svg xmlns="http://www.w3.org/2000/svg"
     width="1.11111in" height="1.02222in"
     viewBox="0 0 100 92">
  <path id="Imported Path"
        fill="none" stroke="black" stroke-width="1"
        d="M 31.71,51.29
           C 31.71,51.29 31.71,92.00 31.71,92.00
             31.71,92.00 47.56,92.00 47.56,92.00
             47.56,92.00 47.56,51.29 47.56,51.29
             47.56,51.29 31.71,51.29 31.71,51.29 Z
           M 73.17,51.29
           C 73.17,51.29 73.17,92.00 73.17,92.00
             73.17,92.00 81.10,92.00 81.10,92.00
             81.10,92.00 81.10,51.29 81.10,51.29
             81.10,51.29 73.17,51.29 73.17,51.29 Z
           M 100.00,17.39
           C 100.00,26.68 92.75,34.25 83.62,34.74
             80.66,34.70 78.03,34.00 76.16,32.70
             74.03,31.22 72.90,29.04 72.79,26.20
             72.71,23.89 73.52,21.68 75.08,19.99
             76.64,18.29 78.77,17.31 81.07,17.22
             81.07,17.22 80.88,12.32 80.88,12.32
             77.28,12.46 73.95,14.00 71.50,16.66
             69.05,19.31 67.78,22.77 67.92,26.38
             68.08,30.79 69.97,34.37 73.38,36.73
             75.51,38.21 78.14,39.14 81.10,39.48
             81.10,39.48 81.10,46.39 81.10,46.39
             81.10,46.39 18.90,46.39 18.90,46.39
             18.90,46.39 18.90,39.40 18.90,39.40
             26.48,38.36 31.34,33.53 31.62,26.34
             31.76,22.73 30.48,19.27 28.04,16.62
             25.59,13.96 22.26,12.42 18.66,12.28
             18.66,12.28 18.47,17.18 18.47,17.18
             23.21,17.36 26.93,21.39 26.74,26.16
             26.45,33.79 19.04,34.69 15.74,34.70
             6.92,33.91 0.00,26.47 0.00,17.39
             0.00,7.96 7.47,0.31 16.79,0.03
             16.79,0.03 16.77,0.00 16.77,0.00
             16.77,0.00 83.23,0.00 83.23,0.00
             83.23,0.00 83.21,0.03 83.21,0.03
             92.53,0.30 100.00,7.96 100.00,17.39 Z
           M 18.90,51.29
           C 18.90,51.29 18.90,92.00 18.90,92.00
             18.90,92.00 26.83,92.00 26.83,92.00
             26.83,92.00 26.83,51.29 26.83,51.29
             26.83,51.29 18.90,51.29 18.90,51.29 Z
           M 52.44,51.29
           C 52.44,51.29 52.44,92.00 52.44,92.00
             52.44,92.00 68.29,92.00 68.29,92.00
             68.29,92.00 68.29,51.29 68.29,51.29
             68.29,51.29 52.44,51.29 52.44,51.29 Z" />
</svg>